<?xml version="1.0" encoding="utf-8" ?>
<svg baseProfile="tiny" height="860" version="1.2" width="700" xmlns="http://www.w3.org/2000/svg" xmlns:ev="http://www.w3.org/2001/xml-events" xmlns:xlink="http://www.w3.org/1999/xlink"><defs /><rect fill="#f9d1b1" height="150" width="150" x="20" y="20" /><text fill="black" font-family="Inter" font-size="18" text-anchor="middle" x="95.0" y="195">01</text><rect fill="#20272c" height="150" width="150" x="190" y="20" /><text fill="black" font-family="Inter" font-size="18" text-anchor="middle" x="265.0" y="195">02</text><rect fill="#475c66" height="150" width="150" x="360" y="20" /><text fill="black" font-family="Inter" font-size="18" text-anchor="middle" x="435.0" y="195">03</text><rect fill="#ac9d91" height="150" width="150" x="530" y="20" /><text fill="black" font-family="Inter" font-size="18" text-anchor="middle" x="605.0" y="195">04</text><rect fill="#334850" height="150" width="150" x="20" y="230" /><text fill="black" font-family="Inter" font-size="18" text-anchor="middle" x="95.0" y="405">05</text><rect fill="#c4ad9d" height="150" width="150" x="190" y="230" /><text fill="black" font-family="Inter" font-size="18" text-anchor="middle" x="265.0" y="405">06</text><rect fill="#ebc4aa" height="150" width="150" x="360" y="230" /><text fill="black" font-family="Inter" font-size="18" text-anchor="middle" x="435.0" y="405">07</text><rect fill="#080909" height="150" width="150" x="530" y="230" /><text fill="black" font-family="Inter" font-size="18" text-anchor="middle" x="605.0" y="405">08</text><rect fill="#5f6b71" height="150" width="150" x="20" y="440" /><text fill="black" font-family="Inter" font-size="18" text-anchor="middle" x="95.0" y="615">09</text><rect fill="#788084" height="150" width="150" x="190" y="440" /><text fill="black" font-family="Inter" font-size="18" text-anchor="middle" x="265.0" y="615">10</text><rect fill="#c9c7c8" height="150" width="150" x="360" y="440" /><text fill="black" font-family="Inter" font-size="18" text-anchor="middle" x="435.0" y="615">11</text><rect fill="#d6b6a2" height="150" width="150" x="530" y="440" /><text fill="black" font-family="Inter" font-size="18" text-anchor="middle" x="605.0" y="615">12</text><rect fill="#000000" height="150" width="150" x="20" y="650" /><text fill="black" font-family="Inter" font-size="18" text-anchor="middle" x="95.0" y="825">00</text></svg>